<?xml version="1.0" encoding="utf-8"?>
<!-- Generator: Adobe Illustrator 18.0.0, SVG Export Plug-In . SVG Version: 6.00 Build 0)  -->
<!DOCTYPE svg PUBLIC "-//W3C//DTD SVG 1.1//EN" "http://www.w3.org/Graphics/SVG/1.1/DTD/svg11.dtd">
<svg version="1.1" id="Layer_1" xmlns="http://www.w3.org/2000/svg" xmlns:xlink="http://www.w3.org/1999/xlink" x="0px" y="0px"
	 viewBox="0 0 64 64" enable-background="new 0 0 64 64" xml:space="preserve">
<g>
	<g>
		<g>
			<path d="M31.5,15c8.5,0,15.2,4.6,16.7,14H40l12,12l12-12h-7.7C54.6,15.3,44.3,7,31.5,7c-8.1,0-15.9,4-20.7,10.6l6.5,4.7
				C20.6,17.8,26,15,31.5,15z"/>
		</g>
	</g>
	<g>
		<g>
			<path d="M32.5,49c-8.5,0-15.2-4.6-16.7-14H24L12,23L0,35h7.7c1.7,13.7,11.9,22,24.8,22c8.1,0,15.9-4,20.7-10.6l-6.5-4.7
				C43.4,46.2,38,49,32.5,49z"/>
		</g>
	</g>
</g>
</svg>
